<svg width="191" height="78" viewBox="0 0 191 78" fill="none" xmlns="http://www.w3.org/2000/svg">
<g filter="url(#filter0_d_9_10)">
<path d="M6.25 49.85C6.21667 49.2167 6.11667 48.5833 5.95 47.95C5.81667 47.3167 5.65 46.6833 5.45 46.05C5.25 45.3833 5.05 44.7333 4.85 44.1C4.68333 43.4333 4.55 42.75 4.45 42.05C4.38333 41.7833 4.45 41.6333 4.65 41.6C4.81667 41.5667 4.98333 41.5333 5.15 41.5C5.35 41.4667 5.51667 41.45 5.65 41.45C5.95 41.45 6.16667 41.6333 6.3 42C6.43333 42.3667 6.66667 42.8167 7 43.35C7.36667 43.85 7.76667 44.4 8.2 45C9.1 46.2667 10.0833 47.2667 11.15 48C12.25 48.7333 13.55 49.1 15.05 49.1C16.0167 49.1 16.8167 48.9167 17.45 48.55C18.0833 48.2167 18.5833 47.7333 18.95 47.1C19.3167 46.4667 19.5833 45.7333 19.75 44.9C19.9167 44.0667 20 43.1833 20 42.25C20 41.1167 19.8333 40.1333 19.5 39.3C19.1667 38.4667 18.6667 37.7167 18 37.05C17.3667 36.3833 16.5833 35.7833 15.65 35.25C14.7167 34.7167 13.6333 34.2 12.4 33.7C10.6667 32.9667 9.18333 32.25 7.95 31.55C6.71667 30.85 5.66667 29.9667 4.8 28.9C4.3 28.3333 3.86667 27.5833 3.5 26.65C3.13333 25.7167 2.95 24.6667 2.95 23.5C2.95 21.7667 3.3 20.2667 4 19C4.7 17.7333 5.63333 16.7667 6.8 16.1C7.1 15.9333 7.6 15.7167 8.3 15.45C9.03333 15.1833 9.85 14.9333 10.75 14.7C11.65 14.4333 12.6 14.2167 13.6 14.05C14.6 13.85 15.5333 13.75 16.4 13.75C16.7667 13.75 17.25 13.7667 17.85 13.8C18.45 13.8333 19.05 13.8833 19.65 13.95C20.2833 13.9833 20.8667 14.0333 21.4 14.1C21.9333 14.1333 22.3167 14.1667 22.55 14.2C23.65 14.4 24.5167 14.55 25.15 14.65C25.8167 14.75 26.3 14.8833 26.6 15.05C26.9333 15.1833 27.15 15.4 27.25 15.7C27.3833 15.9667 27.4667 16.3833 27.5 16.95C27.5333 17.4833 27.5833 18.2 27.65 19.1C27.7167 20 27.8667 21.15 28.1 22.55C28.1667 22.75 28.1667 22.9 28.1 23C28.0667 23.1 28.0167 23.1833 27.95 23.25C27.85 23.3167 27.65 23.3833 27.35 23.45C27.0833 23.5167 26.7833 23.5833 26.45 23.65C26.15 23.6833 25.85 23.7333 25.55 23.8C25.2833 23.8333 25.1 23.8833 25 23.95C24.8333 24.0167 24.7 23.9 24.6 23.6C24.2333 22.5333 23.85 21.6167 23.45 20.85C23.05 20.05 22.4667 19.35 21.7 18.75C21.1 18.25 20.3333 17.85 19.4 17.55C18.5 17.25 17.5167 17.1 16.45 17.1C15.7167 17.1 14.8833 17.2 13.95 17.4C13.0167 17.6 12.1333 17.8833 11.3 18.25C10.5 18.6167 9.81667 19.0667 9.25 19.6C8.71667 20.1333 8.45 20.7333 8.45 21.4C8.45 22.1667 8.61667 22.9333 8.95 23.7C9.31667 24.4333 9.73333 25.0333 10.2 25.5C10.7667 26.0667 11.5667 26.6 12.6 27.1C13.6667 27.5667 14.9667 28.1 16.5 28.7C18.2333 29.4 19.7 30.2667 20.9 31.3C22.1 32.3333 23.0833 33.2333 23.85 34C24.8833 34.9667 25.5333 36 25.8 37.1C26.0667 38.1667 26.2 39.3667 26.2 40.7C26.2 41.6 26.0333 42.55 25.7 43.55C25.3667 44.5167 24.9333 45.45 24.4 46.35C23.9 47.2167 23.3167 48 22.65 48.7C22.0167 49.4333 21.3667 49.9667 20.7 50.3C19.7333 50.8333 18.8833 51.2333 18.15 51.5C17.4167 51.7667 16.7167 51.9333 16.05 52C15.3833 52.0667 14.6833 52.05 13.95 51.95C13.2167 51.85 12.3667 51.6667 11.4 51.4L6.25 49.85ZM16.85 55.4C17.1167 55.4 17.3167 55.6167 17.45 56.05C17.45 56.1167 17.5333 56.2833 17.7 56.55C17.9 56.8167 18.1167 57.0833 18.35 57.35C18.5833 57.6167 18.7833 57.8667 18.95 58.1C19.15 58.3333 19.2667 58.45 19.3 58.45C19.5667 58.55 19.75 58.6667 19.85 58.8C19.9833 58.9667 20.05 59.2833 20.05 59.75C20.05 59.9833 19.9167 60.1167 19.65 60.15C19.55 60.1833 19.3833 60.3 19.15 60.5C18.9167 60.7333 18.6667 60.9833 18.4 61.25C18.1667 61.55 17.9333 61.85 17.7 62.15C17.4667 62.4833 17.3167 62.7667 17.25 63C17.1833 63.2667 16.9167 63.4 16.45 63.4C16.05 63.4 15.7167 63.2167 15.45 62.85C15.2167 62.5167 14.8333 62.0667 14.3 61.5C14.2333 61.4333 14.1 61.2 13.9 60.8C13.7 60.4333 13.4333 60.1667 13.1 60C12.6333 59.8 12.4 59.5333 12.4 59.2C12.4 59.0333 12.4667 58.8333 12.6 58.6C12.7667 58.4 12.95 58.2833 13.15 58.25C13.2833 58.25 13.4833 58.1333 13.75 57.9C14.05 57.6667 14.3333 57.4 14.6 57.1C14.9 56.8333 15.1667 56.5667 15.4 56.3C15.6333 56.0667 15.7667 55.9167 15.8 55.85C15.9333 55.55 16.0667 55.4 16.2 55.4H16.85ZM29.6867 47.15C29.6867 47.0833 29.6701 47.05 29.6367 47.05V47L29.6867 46.95C30.2867 46.6833 30.7701 46.45 31.1367 46.25C31.5034 46.05 31.7867 45.7833 31.9867 45.45C32.1867 45.1167 32.3034 44.7 32.3367 44.2C32.4034 43.7 32.4367 43.0167 32.4367 42.15V23.45H28.8367C28.4701 23.45 28.1534 23.35 27.8867 23.15C27.5867 22.95 27.4367 22.6833 27.4367 22.35C27.4367 22.0167 27.5867 21.75 27.8867 21.55C28.1534 21.3167 28.4701 21.2 28.8367 21.2H32.4367V13.95C32.4367 13.35 32.4201 12.8833 32.3867 12.55C32.3867 12.2167 32.3201 11.9333 32.1867 11.7C32.0534 11.4333 31.8534 11.1833 31.5867 10.95C31.3534 10.6833 31.0034 10.35 30.5367 9.95C30.4034 9.81666 30.3367 9.66666 30.3367 9.5C30.3367 9.3 30.4201 9.15 30.5867 9.05C30.8867 8.85 31.3367 8.75 31.9367 8.75L35.4367 9C36.1034 9 36.6034 8.91667 36.9367 8.75C37.1367 8.68333 37.2534 8.65 37.2867 8.65C37.3867 8.65 37.4701 8.68333 37.5367 8.75C37.6701 8.98333 37.7367 9.21666 37.7367 9.45C37.7367 10.0167 37.7201 10.6 37.6867 11.2C37.6867 11.8 37.6701 12.4833 37.6367 13.25C37.6034 13.9833 37.5701 14.8333 37.5367 15.8C37.5367 16.7333 37.5367 17.85 37.5367 19.15V21.2H55.4367C55.7701 21.2333 56.0701 21.3667 56.3367 21.6C56.6034 21.8 56.7367 22.05 56.7367 22.35C56.7367 22.6833 56.6034 22.95 56.3367 23.15C56.0701 23.35 55.7701 23.45 55.4367 23.45H37.5367V29.95C37.5367 30.1167 37.5367 30.3 37.5367 30.5C37.5701 30.6667 37.6701 30.75 37.8367 30.75H37.8867C38.0867 30.65 38.4034 30.45 38.8367 30.15C39.3034 29.8167 39.7867 29.4667 40.2867 29.1C40.7867 28.7333 41.2701 28.4 41.7367 28.1C42.2034 27.7667 42.5534 27.55 42.7867 27.45C43.8867 27.0833 44.7867 26.9 45.4867 26.9C46.5201 26.9 47.4034 27.1333 48.1367 27.6C48.8701 28.0667 49.4701 28.7 49.9367 29.5C50.4034 30.3 50.7367 31.25 50.9367 32.35C51.1701 33.4167 51.2867 34.5667 51.2867 35.8C51.2867 36.2333 51.2701 36.9333 51.2367 37.9C51.2367 38.8667 51.2034 39.9 51.1367 41C51.1034 42.0667 51.0534 43.1167 50.9867 44.15C50.9201 45.15 50.8367 45.9333 50.7367 46.5C50.4367 48.1667 49.9201 49.4833 49.1867 50.45C48.4534 51.45 47.6367 52.2 46.7367 52.7C45.8367 53.2 44.9034 53.5333 43.9367 53.7C43.0034 53.8667 42.1701 53.9667 41.4367 54C41.3367 54 41.2701 53.95 41.2367 53.85C41.2034 53.7833 41.1867 53.5833 41.1867 53.25V52.95C41.1867 52.6833 41.2367 52.5 41.3367 52.4C41.4367 52.3333 41.6034 52.25 41.8367 52.15C42.1034 52.0833 42.3534 52 42.5867 51.9C42.7867 51.8 43.0201 51.65 43.2867 51.45C43.5534 51.2833 43.8201 50.9833 44.0867 50.55C44.3867 50.15 44.6701 49.5833 44.9367 48.85C45.2367 48.15 45.5201 47.2167 45.7867 46.05C45.9867 45.2167 46.1201 44.45 46.1867 43.75C46.2534 43.0167 46.2867 42.3333 46.2867 41.7C46.2867 41.1 46.2701 40.55 46.2367 40.05C46.2034 39.5167 46.1867 39 46.1867 38.5C46.1867 37.4333 46.1367 36.55 46.0367 35.85C45.9367 35.15 45.8034 34.5667 45.6367 34.1C45.5034 33.6 45.3201 33.2167 45.0867 32.95C44.8867 32.65 44.6701 32.4 44.4367 32.2C43.9701 31.8667 43.5201 31.65 43.0867 31.55C42.6867 31.45 42.3034 31.4 41.9367 31.4C40.5701 31.4 39.2867 31.6667 38.0867 32.2C37.7201 32.3333 37.5367 32.7 37.5367 33.3V38.85C37.5367 41.1167 37.4534 42.8833 37.2867 44.15C37.1534 45.3833 36.8701 46.3 36.4367 46.9C36.0367 47.4667 35.4367 47.8333 34.6367 48C33.8701 48.1333 32.8367 48.2333 31.5367 48.3H30.9367C30.7367 48.3 30.5201 48.3167 30.2867 48.35C30.1534 48.35 30.0534 48.3 29.9867 48.2L29.6867 47.15ZM58.3027 32.75C58.8027 31.75 59.2861 30.95 59.7527 30.35C60.2527 29.75 60.7361 29.2667 61.2027 28.9C61.7027 28.5333 62.2194 28.2167 62.7527 27.95C63.2861 27.6833 63.8694 27.3667 64.5027 27C64.7361 26.8667 64.9361 26.6667 65.1027 26.4C65.2694 26.1333 65.4027 25.8667 65.5027 25.6C65.6027 25.3333 65.6861 25.1 65.7527 24.9C65.8194 24.7 65.8861 24.6 65.9527 24.6C66.0194 24.6 66.0694 24.7 66.1027 24.9C66.1361 25.0667 66.2027 25.2833 66.3027 25.55C66.4027 25.8167 66.5694 26.1 66.8027 26.4C67.0361 26.7 67.4027 26.9667 67.9027 27.2C68.4027 27.4333 68.9194 27.6833 69.4527 27.95C69.9861 28.1833 70.5027 28.4667 71.0027 28.8C71.5027 29.1 72.1027 29.7167 72.8027 30.65C73.5027 31.5833 74.0027 32.5833 74.3027 33.65C74.6361 34.7167 74.7194 35.7167 74.5527 36.65C74.4194 37.55 74.2694 38.2 74.1027 38.6C73.9694 38.9667 73.7527 39.25 73.4527 39.45C73.1527 39.65 72.7361 39.7833 72.2027 39.85C71.7027 39.8833 71.0527 39.9 70.2527 39.9C68.8194 39.9 67.5027 39.8 66.3027 39.6C65.1027 39.3667 63.9194 38.9333 62.7527 38.3C62.6527 38.3333 62.5694 38.4 62.5027 38.5C62.4361 38.6 62.4027 38.8167 62.4027 39.15C62.3361 42.3833 62.8861 44.4833 64.0527 45.45C65.2194 46.4167 67.2861 46.2167 70.2527 44.85C69.9527 44.9167 70.0361 45.1667 70.5027 45.6C70.9694 46.0333 70.5861 46.6167 69.3527 47.35C68.1527 48.0833 66.9694 48.45 65.8027 48.45C64.8694 48.45 64.0027 48.3333 63.2027 48.1C62.4361 47.8667 61.7694 47.5833 61.2027 47.25C60.6361 46.9167 60.1527 46.6 59.7527 46.3C59.3861 45.9667 59.1194 45.7 58.9527 45.5C58.4861 44.9333 58.0027 44.1333 57.5027 43.1C57.0027 42.0667 56.7527 41.0167 56.7527 39.95C56.7527 38.85 56.7694 38.05 56.8027 37.55C56.8361 37.0167 56.9027 36.5167 57.0027 36.05C57.1361 35.5833 57.3027 35.1 57.5027 34.6C57.7027 34.0667 57.9694 33.45 58.3027 32.75ZM53.8527 22.35C53.8527 22.0167 53.9694 21.75 54.2027 21.55C54.4361 21.3167 54.7027 21.2 55.0027 21.2H76.7027C76.9694 21.2333 77.2027 21.3667 77.4027 21.6C77.6361 21.8 77.7527 22.05 77.7527 22.35C77.7527 22.6833 77.6361 22.95 77.4027 23.15C77.2027 23.35 76.9694 23.45 76.7027 23.45H55.0027C54.7027 23.45 54.4361 23.35 54.2027 23.15C53.9694 22.95 53.8527 22.6833 53.8527 22.35ZM66.6527 10.35C66.9194 10.35 67.1194 10.5667 67.2527 11C67.2527 11.0667 67.3361 11.2333 67.5027 11.5C67.7027 11.7667 67.9194 12.05 68.1527 12.35C68.3861 12.6167 68.5861 12.8667 68.7527 13.1C68.9527 13.3 69.0694 13.4 69.1027 13.4C69.3694 13.5 69.5527 13.6333 69.6527 13.8C69.7861 13.9333 69.8527 14.2333 69.8527 14.7C69.8527 14.7667 69.7194 14.8833 69.4527 15.05C69.2194 15.2167 68.9361 15.4333 68.6027 15.7C68.3027 15.9667 68.0027 16.2833 67.7027 16.65C67.4027 17.0167 67.1861 17.45 67.0527 17.95C66.9861 18.2167 66.7194 18.35 66.2527 18.35C65.8527 18.35 65.5194 18.1833 65.2527 17.85C65.0194 17.4833 64.6361 17.0167 64.1027 16.45C64.0361 16.3833 63.9027 16.1667 63.7027 15.8C63.5027 15.4 63.2361 15.1167 62.9027 14.95C62.4361 14.75 62.2027 14.4833 62.2027 14.15C62.2027 13.8833 62.3527 13.65 62.6527 13.45C62.9527 13.2167 63.3027 12.9667 63.7027 12.7C64.1027 12.4333 64.4861 12.15 64.8527 11.85C65.2194 11.55 65.4694 11.2 65.6027 10.8C65.7694 10.5 65.9027 10.35 66.0027 10.35H66.6527ZM68.7527 34.35C68.7527 33.85 68.6694 33.35 68.5027 32.85C68.3361 32.3167 68.1027 31.85 67.8027 31.45C67.5027 31.0167 67.1527 30.6833 66.7527 30.45C66.3861 30.1833 65.9861 30.05 65.5527 30.05C65.1527 30.05 64.7694 30.2 64.4027 30.5C64.0361 30.8 63.7027 31.2167 63.4027 31.75C63.1027 32.2833 62.8527 32.9167 62.6527 33.65C62.4861 34.35 62.4027 35.1333 62.4027 36C62.4027 36.3333 62.5861 36.6167 62.9527 36.85C63.3527 37.05 63.7861 37.2167 64.2527 37.35C64.7527 37.4833 65.2194 37.5833 65.6527 37.65C66.1194 37.6833 66.4194 37.7 66.5527 37.7H67.2527C67.4527 37.7 67.6361 37.6667 67.8027 37.6C67.9694 37.5333 68.1194 37.4 68.2527 37.2C68.4194 36.9667 68.5361 36.6333 68.6027 36.2C68.7027 35.7333 68.7527 35.1333 68.7527 34.4V34.35ZM76.9035 47.15C76.9035 47.0833 76.8868 47.05 76.8535 47.05V47L76.9035 46.95C77.5035 46.6833 77.9868 46.45 78.3535 46.25C78.7202 46.05 79.0035 45.7833 79.2035 45.45C79.4035 45.1167 79.5202 44.7 79.5535 44.2C79.6202 43.7 79.6535 43.0167 79.6535 42.15V23.45H76.0535C75.6868 23.45 75.3702 23.35 75.1035 23.15C74.8035 22.95 74.6535 22.6833 74.6535 22.35C74.6535 22.0167 74.8035 21.75 75.1035 21.55C75.3702 21.3167 75.6868 21.2 76.0535 21.2H79.6535V13.95C79.6535 13.35 79.6368 12.8833 79.6035 12.55C79.6035 12.2167 79.5368 11.9333 79.4035 11.7C79.2702 11.4333 79.0702 11.1833 78.8035 10.95C78.5702 10.6833 78.2202 10.35 77.7535 9.95C77.6202 9.81666 77.5535 9.66666 77.5535 9.5C77.5535 9.3 77.6368 9.15 77.8035 9.05C78.1035 8.85 78.5535 8.75 79.1535 8.75L82.6535 9C83.3202 9 83.8202 8.91667 84.1535 8.75C84.3535 8.68333 84.4702 8.65 84.5035 8.65C84.6035 8.65 84.6868 8.68333 84.7535 8.75C84.8868 8.98333 84.9535 9.21666 84.9535 9.45C84.9535 10.0167 84.9368 10.6 84.9035 11.2C84.9035 11.8 84.8868 12.4833 84.8535 13.25C84.8202 13.9833 84.7868 14.8333 84.7535 15.8C84.7535 16.7333 84.7535 17.85 84.7535 19.15V21.2H102.654C102.987 21.2333 103.287 21.3667 103.554 21.6C103.82 21.8 103.954 22.05 103.954 22.35C103.954 22.6833 103.82 22.95 103.554 23.15C103.287 23.35 102.987 23.45 102.654 23.45H84.7535V29.95C84.7535 30.1167 84.7535 30.3 84.7535 30.5C84.7868 30.6667 84.8868 30.75 85.0535 30.75H85.1035C85.3035 30.65 85.6202 30.45 86.0535 30.15C86.5202 29.8167 87.0035 29.4667 87.5035 29.1C88.0035 28.7333 88.4868 28.4 88.9535 28.1C89.4202 27.7667 89.7702 27.55 90.0035 27.45C91.1035 27.0833 92.0035 26.9 92.7035 26.9C93.7369 26.9 94.6202 27.1333 95.3535 27.6C96.0869 28.0667 96.6869 28.7 97.1535 29.5C97.6202 30.3 97.9535 31.25 98.1535 32.35C98.3868 33.4167 98.5035 34.5667 98.5035 35.8C98.5035 36.2333 98.4868 36.9333 98.4535 37.9C98.4535 38.8667 98.4202 39.9 98.3535 41C98.3202 42.0667 98.2702 43.1167 98.2035 44.15C98.1369 45.15 98.0535 45.9333 97.9535 46.5C97.6535 48.1667 97.1369 49.4833 96.4035 50.45C95.6702 51.45 94.8535 52.2 93.9535 52.7C93.0535 53.2 92.1202 53.5333 91.1535 53.7C90.2202 53.8667 89.3869 53.9667 88.6535 54C88.5535 54 88.4868 53.95 88.4535 53.85C88.4202 53.7833 88.4035 53.5833 88.4035 53.25V52.95C88.4035 52.6833 88.4535 52.5 88.5535 52.4C88.6535 52.3333 88.8202 52.25 89.0535 52.15C89.3202 52.0833 89.5702 52 89.8035 51.9C90.0035 51.8 90.2369 51.65 90.5035 51.45C90.7702 51.2833 91.0369 50.9833 91.3035 50.55C91.6035 50.15 91.8868 49.5833 92.1535 48.85C92.4535 48.15 92.7368 47.2167 93.0035 46.05C93.2035 45.2167 93.3368 44.45 93.4035 43.75C93.4702 43.0167 93.5035 42.3333 93.5035 41.7C93.5035 41.1 93.4868 40.55 93.4535 40.05C93.4202 39.5167 93.4035 39 93.4035 38.5C93.4035 37.4333 93.3535 36.55 93.2535 35.85C93.1535 35.15 93.0202 34.5667 92.8535 34.1C92.7202 33.6 92.5369 33.2167 92.3035 32.95C92.1035 32.65 91.8868 32.4 91.6535 32.2C91.1868 31.8667 90.7368 31.65 90.3035 31.55C89.9035 31.45 89.5202 31.4 89.1535 31.4C87.7868 31.4 86.5035 31.6667 85.3035 32.2C84.9368 32.3333 84.7535 32.7 84.7535 33.3V38.85C84.7535 41.1167 84.6702 42.8833 84.5035 44.15C84.3702 45.3833 84.0868 46.3 83.6535 46.9C83.2535 47.4667 82.6535 47.8333 81.8535 48C81.0868 48.1333 80.0535 48.2333 78.7535 48.3H78.1535C77.9535 48.3 77.7368 48.3167 77.5035 48.35C77.3702 48.35 77.2702 48.3 77.2035 48.2L76.9035 47.15ZM105.42 31.55C105.82 30.8833 106.236 30.3667 106.67 30C107.136 29.6333 107.603 29.3167 108.07 29.05C108.57 28.75 109.086 28.4833 109.62 28.25C110.153 28.0167 110.736 27.7167 111.37 27.35C111.603 27.2167 111.803 27.0167 111.97 26.75C112.136 26.4833 112.27 26.2167 112.37 25.95C112.47 25.6833 112.553 25.45 112.62 25.25C112.686 25.05 112.753 24.95 112.82 24.95C112.886 24.95 112.936 25.05 112.97 25.25C113.003 25.4167 113.07 25.6333 113.17 25.9C113.27 26.1667 113.436 26.45 113.67 26.75C113.903 27.05 114.27 27.3167 114.77 27.55C115.536 27.9167 116.27 28.2333 116.97 28.5C117.67 28.7333 118.253 29.1 118.72 29.6C119.186 30.1333 119.486 30.6333 119.62 31.1C119.753 31.5333 119.82 31.9667 119.82 32.4C120.12 33.2 120.203 35.8 120.07 40.2C119.936 44.6 120.07 47.7167 120.47 49.55C120.87 51.4167 121.17 52.35 121.37 52.35C121.736 52.35 122.153 52.2667 122.62 52.1C123.086 51.9667 123.403 51.85 123.57 51.75C123.67 51.6833 123.786 51.7333 123.92 51.9C124.086 52.1 124.153 52.2833 124.12 52.45L123.97 53.35C123.97 53.55 123.836 53.7167 123.57 53.85C123.37 53.95 123.036 54.0833 122.57 54.25C122.103 54.4167 121.57 54.5667 120.97 54.7C120.403 54.8667 119.803 55 119.17 55.1C118.536 55.2333 117.953 55.3 117.42 55.3C117.186 55.3 116.92 54.9167 116.62 54.15C116.32 53.3833 116.036 52.4833 115.77 51.45C115.503 50.4167 115.253 49.3667 115.02 48.3C114.82 47.2667 114.686 46.4667 114.62 45.9C114.086 46.2 113.486 46.5167 112.82 46.85C112.153 47.15 111.503 47.4333 110.87 47.7C110.27 47.9667 109.736 48.1833 109.27 48.35C108.803 48.5167 108.486 48.6 108.32 48.6C107.286 48.6 106.27 48.1333 105.27 47.2C105.003 46.9333 104.686 46.4667 104.32 45.8C103.986 45.1 103.82 44.25 103.82 43.25C103.82 42.9167 103.953 42.5667 104.22 42.2C104.486 41.8 104.803 41.4167 105.17 41.05C105.57 40.65 105.986 40.3 106.42 40C106.853 39.6667 107.253 39.4 107.62 39.2C108.786 38.6 109.936 38 111.07 37.4C112.203 36.7667 113.436 36.35 114.77 36.15C114.77 35.8833 114.77 35.7 114.77 35.6C114.803 35.4667 114.82 35.35 114.82 35.25V34.35C114.82 33.5167 114.736 32.8167 114.57 32.25C114.436 31.65 114.253 31.2667 114.02 31.1C113.82 30.8667 113.453 30.6667 112.92 30.5C112.42 30.3 111.836 30.2 111.17 30.2C110.936 30.3333 110.686 30.4833 110.42 30.65C110.186 30.8167 109.936 30.9833 109.67 31.15C109.636 31.3833 109.603 31.65 109.57 31.95C109.57 32.25 109.57 32.6333 109.57 33.1C109.57 33.4333 109.453 33.6333 109.22 33.7L106.07 34.65C105.803 34.75 105.57 34.8167 105.37 34.85C105.17 34.8833 105.036 34.9 104.97 34.9C104.47 34.9 104.17 34.7833 104.07 34.55C104.003 34.2833 104.036 33.9667 104.17 33.6C104.336 33.2333 104.553 32.8667 104.82 32.5C105.086 32.1 105.286 31.7833 105.42 31.55ZM101.07 22.35C101.07 22.0167 101.186 21.75 101.42 21.55C101.62 21.3167 101.87 21.2 102.17 21.2H123.12C123.386 21.2333 123.62 21.3667 123.82 21.6C124.02 21.8 124.12 22.05 124.12 22.35C124.12 22.6833 124.02 22.95 123.82 23.15C123.62 23.35 123.386 23.45 123.12 23.45H102.17C101.87 23.45 101.62 23.35 101.42 23.15C101.186 22.95 101.07 22.6833 101.07 22.35ZM112.92 10.35C113.186 10.35 113.386 10.5667 113.52 11C113.52 11.0667 113.603 11.2333 113.77 11.5C113.97 11.7667 114.186 12.0333 114.42 12.3C114.653 12.5667 114.853 12.8167 115.02 13.05C115.22 13.2833 115.336 13.4 115.37 13.4C115.636 13.5 115.82 13.6333 115.92 13.8C116.053 13.9333 116.12 14.2333 116.12 14.7C116.12 14.9333 115.986 15.0667 115.72 15.1C115.62 15.1333 115.453 15.2667 115.22 15.5C114.986 15.7 114.736 15.95 114.47 16.25C114.236 16.5167 114.003 16.8167 113.77 17.15C113.536 17.45 113.386 17.7167 113.32 17.95C113.253 18.2167 112.986 18.35 112.52 18.35C112.12 18.35 111.786 18.1833 111.52 17.85C111.286 17.4833 110.903 17.0167 110.37 16.45C110.303 16.3833 110.17 16.1667 109.97 15.8C109.77 15.4 109.503 15.1167 109.17 14.95C108.703 14.75 108.47 14.4833 108.47 14.15C108.47 13.9833 108.536 13.8 108.67 13.6C108.836 13.3667 109.02 13.2333 109.22 13.2C109.353 13.2 109.553 13.0833 109.82 12.85C110.12 12.6167 110.403 12.3667 110.67 12.1C110.97 11.8 111.236 11.5333 111.47 11.3C111.703 11.0333 111.836 10.8667 111.87 10.8C112.003 10.5 112.136 10.35 112.27 10.35H112.92ZM111.42 45.5C111.62 45.5 111.92 45.45 112.32 45.35C112.72 45.2167 113.22 45.0167 113.82 44.75C114.286 44.4833 114.57 44.1333 114.67 43.7C114.67 43.5333 114.67 43.3 114.67 43C114.703 42.6667 114.72 42.3167 114.72 41.95C114.753 41.5833 114.77 41.2333 114.77 40.9V40.1C114.77 39.5333 114.686 39.25 114.52 39.25C113.92 39.35 113.453 39.4667 113.12 39.6C112.82 39.7 112.586 39.8167 112.42 39.95C112.253 40.0833 112.103 40.2167 111.97 40.35C111.87 40.4833 111.686 40.6333 111.42 40.8C111.22 40.9667 111.053 41.1667 110.92 41.4C110.82 41.6333 110.77 41.9833 110.77 42.45C110.77 42.85 110.72 43.25 110.62 43.65C110.553 44.0167 110.503 44.3333 110.47 44.6C110.47 44.8667 110.52 45.0833 110.62 45.25C110.753 45.4167 111.003 45.5 111.37 45.5H111.42ZM126.975 32.2C126.975 32.1333 126.942 32.0167 126.875 31.85C126.842 31.6833 126.742 31.5 126.575 31.3C126.408 31.0667 126.158 30.85 125.825 30.65C125.525 30.45 125.108 30.3 124.575 30.2C124.375 30.1667 124.342 29.9667 124.475 29.6C124.642 29.2 124.742 28.95 124.775 28.85C124.842 28.75 124.942 28.6833 125.075 28.65C125.542 28.5167 126.058 28.4333 126.625 28.4C127.192 28.3333 127.775 28.2833 128.375 28.25C129.008 28.1833 129.625 28.1167 130.225 28.05C130.825 27.95 131.392 27.8167 131.925 27.65L132.125 27.6C132.192 27.5667 132.258 27.55 132.325 27.55C132.425 27.55 132.475 27.7333 132.475 28.1C132.442 28.9333 132.408 29.9667 132.375 31.2C132.342 32.4 132.325 33.6333 132.325 34.9V41.1C132.325 42.6333 132.225 43.8667 132.025 44.8C131.825 45.7333 131.575 46.4833 131.275 47.05C130.975 47.5833 130.642 47.9833 130.275 48.25C129.942 48.55 129.625 48.8 129.325 49C128.925 49.2667 128.475 49.4833 127.975 49.65C127.475 49.8167 126.975 49.9333 126.475 50C126.008 50.0667 125.608 50.1 125.275 50.1C124.942 50.1333 124.758 50.15 124.725 50.15C124.492 50.15 124.358 50.0667 124.325 49.9C124.258 49.8 124.225 49.6167 124.225 49.35V48.7C124.225 48.5333 124.342 48.45 124.575 48.45C125.342 48.2833 125.892 47.9667 126.225 47.5C126.592 47.0333 126.808 46.45 126.875 45.75C126.908 45.55 126.942 45.15 126.975 44.55C127.008 43.95 127.042 43.25 127.075 42.45C127.108 41.65 127.125 40.8 127.125 39.9C127.158 39 127.158 38.15 127.125 37.35L126.975 32.2ZM121.675 22.35C121.675 22.0167 121.758 21.75 121.925 21.55C122.092 21.3167 122.258 21.2 122.425 21.2H136.525C136.692 21.2333 136.842 21.3667 136.975 21.6C137.108 21.8 137.175 22.05 137.175 22.35C137.175 23.0833 136.958 23.45 136.525 23.45H122.425C122.258 23.45 122.092 23.35 121.925 23.15C121.758 22.95 121.675 22.6833 121.675 22.35ZM129.925 10.35C130.192 10.35 130.392 10.5667 130.525 11C130.525 11.0667 130.608 11.2333 130.775 11.5C130.975 11.7667 131.192 12.0333 131.425 12.3C131.658 12.5667 131.858 12.8167 132.025 13.05C132.225 13.2833 132.342 13.4 132.375 13.4C132.642 13.5 132.825 13.6333 132.925 13.8C133.058 13.9333 133.125 14.2333 133.125 14.7C133.125 14.9333 132.992 15.0667 132.725 15.1C132.625 15.1333 132.458 15.2667 132.225 15.5C131.992 15.7 131.742 15.95 131.475 16.25C131.242 16.5167 131.008 16.8167 130.775 17.15C130.542 17.45 130.392 17.7167 130.325 17.95C130.258 18.2167 129.992 18.35 129.525 18.35C129.125 18.35 128.792 18.1833 128.525 17.85C128.292 17.4833 127.908 17.0167 127.375 16.45C127.308 16.3833 127.175 16.1667 126.975 15.8C126.775 15.4 126.508 15.1167 126.175 14.95C125.708 14.75 125.475 14.4833 125.475 14.15C125.475 13.9833 125.542 13.8 125.675 13.6C125.842 13.3667 126.025 13.2333 126.225 13.2C126.358 13.2 126.558 13.0833 126.825 12.85C127.125 12.6167 127.408 12.3667 127.675 12.1C127.975 11.8 128.242 11.5333 128.475 11.3C128.708 11.0333 128.842 10.8667 128.875 10.8C129.008 10.5 129.142 10.35 129.275 10.35H129.925ZM134.566 22.35C134.566 22.0167 134.649 21.75 134.816 21.55C134.982 21.3167 135.182 21.2 135.416 21.2H140.016C140.016 20.4333 140.066 19.7667 140.166 19.2C140.266 18.6 140.416 18.05 140.616 17.55C140.849 17.05 141.132 16.5667 141.466 16.1C141.832 15.6333 142.282 15.1333 142.816 14.6C143.182 14.2333 143.999 13.5833 145.266 12.65C146.532 11.7167 148.066 10.7 149.866 9.6C151.699 8.46667 153.716 7.31666 155.916 6.15C158.116 4.98333 160.316 4 162.516 3.2C164.716 2.36666 166.832 1.78333 168.866 1.45C170.899 1.11666 172.666 1.21666 174.166 1.75C174.799 1.98333 175.449 2.16666 176.116 2.3C176.782 2.43333 177.332 2.7 177.766 3.1C178.132 3.46666 178.316 3.91666 178.316 4.45C178.316 4.81667 178.182 5.2 177.916 5.6C177.649 6 177.316 6.41667 176.916 6.85C176.816 6.98333 176.666 7.1 176.466 7.2C176.299 7.3 176.082 7.35 175.816 7.35C175.449 7.35 175.066 7.2 174.666 6.9C174.266 6.56667 173.832 6.26667 173.366 6C171.866 5.1 170.166 4.68333 168.266 4.75C166.399 4.78333 164.482 5.11667 162.516 5.75C160.582 6.38333 158.666 7.21667 156.766 8.25C154.866 9.25 153.149 10.25 151.616 11.25C150.116 12.25 148.866 13.15 147.866 13.95C146.866 14.75 146.266 15.2667 146.066 15.5C145.699 15.9333 145.466 16.6667 145.366 17.7C145.266 18.7 145.216 19.8667 145.216 21.2H151.366C151.566 21.2333 151.732 21.3667 151.866 21.6C152.032 21.8 152.116 22.05 152.116 22.35C152.116 22.6833 152.032 22.95 151.866 23.15C151.732 23.35 151.566 23.45 151.366 23.45H145.216C145.249 24.1833 145.266 24.9167 145.266 25.65C145.299 26.3833 145.316 27.1167 145.316 27.85C145.316 28.05 145.382 28.2167 145.516 28.35C145.682 28.45 145.832 28.5 145.966 28.5C146.632 28.5 147.282 28.4667 147.916 28.4C148.549 28.3333 148.916 28.3 149.016 28.3C149.182 28.3 149.349 28.3833 149.516 28.55C149.716 28.6833 149.832 28.8333 149.866 29C149.932 29.1667 149.966 29.4667 149.966 29.9C149.999 30.3 150.016 30.6333 150.016 30.9C150.016 31.4 149.832 31.65 149.466 31.65H148.166C147.899 31.65 147.649 31.6333 147.416 31.6C147.182 31.5667 146.582 31.55 145.616 31.55C145.349 31.55 145.182 31.65 145.116 31.85C145.082 32.0167 145.066 32.4333 145.066 33.1V42.65C145.066 43.2167 144.999 43.9333 144.866 44.8C144.766 45.6667 144.566 46.5333 144.266 47.4C143.966 48.2333 143.549 48.9833 143.016 49.65C142.482 50.3167 141.782 50.7333 140.916 50.9C140.116 51.0667 139.366 51.2 138.666 51.3C137.966 51.4 137.482 51.45 137.216 51.45C137.016 51.45 136.882 51.4167 136.816 51.35C136.782 51.2833 136.782 51.1667 136.816 51C136.916 50.5333 137.016 50.2167 137.116 50.05C137.216 49.9167 137.399 49.8167 137.666 49.75C138.232 49.5833 138.666 49.25 138.966 48.75C139.299 48.25 139.532 47.5833 139.666 46.75C139.832 45.9167 139.932 44.9333 139.966 43.8C139.999 42.6333 140.016 41.3333 140.016 39.9V32.75C140.016 32.3833 139.949 32.1 139.816 31.9C139.716 31.7 139.399 31.5667 138.866 31.5L137.266 31.35C137.166 31.3167 137.049 31.2667 136.916 31.2C136.816 31.1 136.799 30.9833 136.866 30.85C137.132 30.3833 137.382 30.0333 137.616 29.8C137.882 29.5667 138.149 29.3833 138.416 29.25C138.682 29.1167 138.949 29.0167 139.216 28.95C139.482 28.8833 139.749 28.8 140.016 28.7V23.45H135.416C135.182 23.45 134.982 23.35 134.816 23.15C134.649 22.95 134.566 22.6833 134.566 22.35ZM153.711 31.55C154.111 30.8833 154.527 30.3667 154.961 30C155.427 29.6333 155.894 29.3167 156.361 29.05C156.861 28.75 157.377 28.4833 157.911 28.25C158.444 28.0167 159.027 27.7167 159.661 27.35C159.894 27.2167 160.094 27.0167 160.261 26.75C160.427 26.4833 160.561 26.2167 160.661 25.95C160.761 25.6833 160.844 25.45 160.911 25.25C160.977 25.05 161.044 24.95 161.111 24.95C161.177 24.95 161.227 25.05 161.261 25.25C161.294 25.4167 161.361 25.6333 161.461 25.9C161.561 26.1667 161.727 26.45 161.961 26.75C162.194 27.05 162.561 27.3167 163.061 27.55C163.827 27.9167 164.561 28.2333 165.261 28.5C165.961 28.7333 166.544 29.1 167.011 29.6C167.477 30.1333 167.777 30.6333 167.911 31.1C168.044 31.5333 168.111 31.9667 168.111 32.4C168.411 33.2 168.494 35.8 168.361 40.2C168.227 44.6 168.361 47.7167 168.761 49.55C169.161 51.4167 169.461 52.35 169.661 52.35C170.027 52.35 170.444 52.2667 170.911 52.1C171.377 51.9667 171.694 51.85 171.861 51.75C171.961 51.6833 172.077 51.7333 172.211 51.9C172.377 52.1 172.444 52.2833 172.411 52.45L172.261 53.35C172.261 53.55 172.127 53.7167 171.861 53.85C171.661 53.95 171.327 54.0833 170.861 54.25C170.394 54.4167 169.861 54.5667 169.261 54.7C168.694 54.8667 168.094 55 167.461 55.1C166.827 55.2333 166.244 55.3 165.711 55.3C165.477 55.3 165.211 54.9167 164.911 54.15C164.611 53.3833 164.327 52.4833 164.061 51.45C163.794 50.4167 163.544 49.3667 163.311 48.3C163.111 47.2667 162.977 46.4667 162.911 45.9C162.377 46.2 161.777 46.5167 161.111 46.85C160.444 47.15 159.794 47.4333 159.161 47.7C158.561 47.9667 158.027 48.1833 157.561 48.35C157.094 48.5167 156.777 48.6 156.611 48.6C155.577 48.6 154.561 48.1333 153.561 47.2C153.294 46.9333 152.977 46.4667 152.611 45.8C152.277 45.1 152.111 44.25 152.111 43.25C152.111 42.9167 152.244 42.5667 152.511 42.2C152.777 41.8 153.094 41.4167 153.461 41.05C153.861 40.65 154.277 40.3 154.711 40C155.144 39.6667 155.544 39.4 155.911 39.2C157.077 38.6 158.227 38 159.361 37.4C160.494 36.7667 161.727 36.35 163.061 36.15C163.061 35.8833 163.061 35.7 163.061 35.6C163.094 35.4667 163.111 35.35 163.111 35.25V34.35C163.111 33.5167 163.027 32.8167 162.861 32.25C162.727 31.65 162.544 31.2667 162.311 31.1C162.111 30.8667 161.744 30.6667 161.211 30.5C160.711 30.3 160.127 30.2 159.461 30.2C159.227 30.3333 158.977 30.4833 158.711 30.65C158.477 30.8167 158.227 30.9833 157.961 31.15C157.927 31.3833 157.894 31.65 157.861 31.95C157.861 32.25 157.861 32.6333 157.861 33.1C157.861 33.4333 157.744 33.6333 157.511 33.7L154.361 34.65C154.094 34.75 153.861 34.8167 153.661 34.85C153.461 34.8833 153.327 34.9 153.261 34.9C152.761 34.9 152.461 34.7833 152.361 34.55C152.294 34.2833 152.327 33.9667 152.461 33.6C152.627 33.2333 152.844 32.8667 153.111 32.5C153.377 32.1 153.577 31.7833 153.711 31.55ZM149.361 22.35C149.361 22.0167 149.477 21.75 149.711 21.55C149.911 21.3167 150.161 21.2 150.461 21.2H171.411C171.677 21.2333 171.911 21.3667 172.111 21.6C172.311 21.8 172.411 22.05 172.411 22.35C172.411 22.6833 172.311 22.95 172.111 23.15C171.911 23.35 171.677 23.45 171.411 23.45H150.461C150.161 23.45 149.911 23.35 149.711 23.15C149.477 22.95 149.361 22.6833 149.361 22.35ZM161.211 10.35C161.477 10.35 161.677 10.5667 161.811 11C161.811 11.0667 161.894 11.2333 162.061 11.5C162.261 11.7667 162.477 12.0333 162.711 12.3C162.944 12.5667 163.144 12.8167 163.311 13.05C163.511 13.2833 163.627 13.4 163.661 13.4C163.927 13.5 164.111 13.6333 164.211 13.8C164.344 13.9333 164.411 14.2333 164.411 14.7C164.411 14.9333 164.277 15.0667 164.011 15.1C163.911 15.1333 163.744 15.2667 163.511 15.5C163.277 15.7 163.027 15.95 162.761 16.25C162.527 16.5167 162.294 16.8167 162.061 17.15C161.827 17.45 161.677 17.7167 161.611 17.95C161.544 18.2167 161.277 18.35 160.811 18.35C160.411 18.35 160.077 18.1833 159.811 17.85C159.577 17.4833 159.194 17.0167 158.661 16.45C158.594 16.3833 158.461 16.1667 158.261 15.8C158.061 15.4 157.794 15.1167 157.461 14.95C156.994 14.75 156.761 14.4833 156.761 14.15C156.761 13.9833 156.827 13.8 156.961 13.6C157.127 13.3667 157.311 13.2333 157.511 13.2C157.644 13.2 157.844 13.0833 158.111 12.85C158.411 12.6167 158.694 12.3667 158.961 12.1C159.261 11.8 159.527 11.5333 159.761 11.3C159.994 11.0333 160.127 10.8667 160.161 10.8C160.294 10.5 160.427 10.35 160.561 10.35H161.211ZM159.711 45.5C159.911 45.5 160.211 45.45 160.611 45.35C161.011 45.2167 161.511 45.0167 162.111 44.75C162.577 44.4833 162.861 44.1333 162.961 43.7C162.961 43.5333 162.961 43.3 162.961 43C162.994 42.6667 163.011 42.3167 163.011 41.95C163.044 41.5833 163.061 41.2333 163.061 40.9V40.1C163.061 39.5333 162.977 39.25 162.811 39.25C162.211 39.35 161.744 39.4667 161.411 39.6C161.111 39.7 160.877 39.8167 160.711 39.95C160.544 40.0833 160.394 40.2167 160.261 40.35C160.161 40.4833 159.977 40.6333 159.711 40.8C159.511 40.9667 159.344 41.1667 159.211 41.4C159.111 41.6333 159.061 41.9833 159.061 42.45C159.061 42.85 159.011 43.25 158.911 43.65C158.844 44.0167 158.794 44.3333 158.761 44.6C158.761 44.8667 158.811 45.0833 158.911 45.25C159.044 45.4167 159.294 45.5 159.661 45.5H159.711Z" fill="#333333"/>
</g>
<defs>
<filter id="filter0_d_9_10" x="0.949997" y="0.949997" width="189.366" height="76.45" filterUnits="userSpaceOnUse" color-interpolation-filters="sRGB">
<feFlood flood-opacity="0" result="BackgroundImageFix"/>
<feColorMatrix in="SourceAlpha" type="matrix" values="0 0 0 0 0 0 0 0 0 0 0 0 0 0 0 0 0 0 127 0" result="hardAlpha"/>
<feOffset dx="5" dy="7"/>
<feGaussianBlur stdDeviation="3.5"/>
<feComposite in2="hardAlpha" operator="out"/>
<feColorMatrix type="matrix" values="0 0 0 0 0 0 0 0 0 0 0 0 0 0 0 0 0 0 0.27 0"/>
<feBlend mode="hard-light" in2="BackgroundImageFix" result="effect1_dropShadow_9_10"/>
<feBlend mode="normal" in="SourceGraphic" in2="effect1_dropShadow_9_10" result="shape"/>
</filter>
</defs>
</svg>
