<svg width="276" height="62" viewBox="0 0 276 62" fill="none" xmlns="http://www.w3.org/2000/svg">
<g filter="url(#filter0_d_9_10)">
<path d="M2.456 33.712C3.43733 35.4613 4.67467 36.6133 6.168 37.168C7.704 37.7227 9.432 37.9573 11.352 37.872C11.992 37.872 12.6107 37.872 13.208 37.872C13.8053 37.8293 14.2533 37.424 14.552 36.656C14.68 36.2293 14.7227 35.8667 14.68 35.568C14.68 35.2693 14.616 34.928 14.488 34.544C13.8907 32.9227 13.336 31.28 12.824 29.616C12.312 27.952 11.7147 26.3093 11.032 24.688C10.52 23.3653 9.96533 21.9573 9.368 20.464C8.81333 18.9707 8.30133 17.456 7.832 15.92C7.40533 14.3413 7.064 12.784 6.808 11.248C6.59467 9.66933 6.59467 8.15466 6.808 6.704C6.89333 5.85067 7.192 5.06133 7.704 4.336C8.25867 3.568 8.89867 2.94933 9.624 2.48C10.648 1.79733 11.7147 1.34933 12.824 1.136C13.9333 0.879999 15 0.858665 16.024 1.072C17.048 1.28533 18.008 1.73333 18.904 2.416C19.8 3.09866 20.5467 4.016 21.144 5.168C21.5707 5.97867 21.8267 6.85333 21.912 7.792C21.9973 8.77333 22.0613 9.75467 22.104 10.736C22.1467 11.6747 22.1893 12.6347 22.232 13.616C22.232 14 22.2747 14.4693 22.36 15.024C22.4453 15.536 22.5093 16.0907 22.552 16.688C22.6373 17.2427 22.7013 17.776 22.744 18.288C22.7867 18.8 22.808 19.184 22.808 19.44C22.808 19.6533 22.7013 19.7813 22.488 19.824C22.2747 19.824 22.104 19.8667 21.976 19.952C21.5493 19.056 21.1227 18.096 20.696 17.072C20.2693 16.048 19.7787 15.0667 19.224 14.128C18.712 13.1467 18.072 12.2933 17.304 11.568C16.536 10.8427 15.6187 10.352 14.552 10.096C15.4053 14.0213 16.4507 17.8613 17.688 21.616C18.9253 25.3707 20.0773 29.1893 21.144 33.072C21.6133 34.6507 21.72 36.2293 21.464 37.808C21.1653 39.4293 20.5893 40.944 19.736 42.352C18.8827 43.76 17.752 44.912 16.344 45.808C15.448 46.3627 14.5733 46.6827 13.72 46.768C12.8667 46.896 11.928 46.96 10.904 46.96C8.42933 46.96 6.53067 45.8933 5.208 43.76C4.86667 43.2053 4.568 42.5013 4.312 41.648C4.056 40.7947 3.8 39.8987 3.544 38.96C3.33067 38.0213 3.11733 37.104 2.904 36.208C2.69067 35.2693 2.456 34.4373 2.2 33.712H2.456ZM60.544 27.696C60.0747 28.1653 59.6053 28.6347 59.136 29.104C58.6667 29.5307 58.176 29.9573 57.664 30.384C57.1947 29.9573 56.7467 29.5307 56.32 29.104C55.936 28.6773 55.5093 28.2293 55.04 27.76C55.4667 27.2907 55.8933 26.8427 56.32 26.416C56.7467 25.9467 57.1733 25.4773 57.6 25.008C58.0693 25.4773 58.5387 25.9467 59.008 26.416C59.4773 26.8427 59.9893 27.2693 60.544 27.696ZM66.56 37.552C66.2187 38.4053 65.8133 39.344 65.344 40.368C64.8747 41.3493 64.2987 42.288 63.616 43.184C62.976 44.0373 62.2293 44.784 61.376 45.424C60.5653 46.064 59.648 46.4693 58.624 46.64C57.8987 46.7253 57.1093 46.768 56.256 46.768C55.4453 46.768 54.6773 46.7893 53.952 46.832C53.312 46.832 52.6293 46.8747 51.904 46.96C51.1787 47.0453 50.432 47.088 49.664 47.088C48.896 47.088 48.1493 47.024 47.424 46.896C46.6987 46.8107 46.0373 46.5973 45.44 46.256C44.5867 45.7867 43.84 45.168 43.2 44.4C42.6027 43.632 42.112 42.7787 41.728 41.84C41.3867 40.9013 41.1733 39.9413 41.088 38.96C41.0027 37.9787 41.088 37.0187 41.344 36.08H41.216C40.832 36.4213 40.064 37.1253 38.912 38.192C37.76 39.2587 36.5227 40.368 35.2 41.52C33.8773 42.672 32.6613 43.696 31.552 44.592C30.4427 45.488 29.76 45.9573 29.504 46C29.1627 46.0853 28.7787 46.0427 28.352 45.872C27.584 45.5307 27.2213 44.9547 27.264 44.144C27.4347 42.5653 27.6053 41.008 27.776 39.472C27.9467 37.936 28.032 36.3573 28.032 34.736C28.032 32.432 27.9893 30.1067 27.904 27.76C27.8187 25.3707 27.776 23.0027 27.776 20.656C27.8187 18.3093 27.9467 15.9627 28.16 13.616C28.416 11.2693 28.8427 8.96533 29.44 6.704C30.8053 5.85067 32.1067 4.976 33.344 4.08C34.624 3.14133 35.9467 2.24533 37.312 1.392C36.288 4.08 35.5627 6.85333 35.136 9.712C34.752 12.528 34.496 15.3867 34.368 18.288C34.24 21.1467 34.176 24.0267 34.176 26.928C34.176 29.8293 34.0907 32.688 33.92 35.504C34.9013 34.2667 35.8613 33.0507 36.8 31.856C37.7813 30.6613 38.7627 29.4453 39.744 28.208C40.0853 27.7813 40.512 27.3973 41.024 27.056C41.536 26.7147 42.0693 26.544 42.624 26.544C42.8373 26.544 43.072 26.608 43.328 26.736C43.6267 26.8213 43.8827 26.928 44.096 27.056C44.5227 27.312 44.7573 27.7173 44.8 28.272C44.8427 28.6987 44.864 29.4027 44.864 30.384C44.9067 31.3653 44.9493 32.3893 44.992 33.456C45.0773 34.5227 45.1627 35.504 45.248 36.4C45.3333 37.296 45.44 37.8507 45.568 38.064C45.824 38.5333 46.1867 38.9813 46.656 39.408C47.168 39.8773 47.808 40.1973 48.576 40.368C49.344 40.5387 50.1547 40.6453 51.008 40.688C51.8613 40.688 52.7147 40.6667 53.568 40.624C54.4213 40.5387 55.1893 40.496 55.872 40.496C56.896 40.496 57.8773 40.496 58.816 40.496C59.7547 40.496 60.672 40.4107 61.568 40.24C62.464 40.0693 63.3173 39.792 64.128 39.408C64.9813 38.9813 65.792 38.3627 66.56 37.552ZM97.546 27.184C97.0767 27.6533 96.5647 28.08 96.01 28.464C95.498 28.848 94.986 29.2533 94.474 29.68C94.09 29.2107 93.706 28.7627 93.322 28.336C92.938 27.8667 92.5753 27.3973 92.234 26.928C92.7887 26.5013 93.3007 26.0747 93.77 25.648C94.282 25.2213 94.8153 24.7947 95.37 24.368C95.6687 24.88 96.01 25.3493 96.394 25.776C96.8207 26.2027 97.2047 26.672 97.546 27.184ZM100.682 37.552C100.511 38.5333 100.191 39.536 99.722 40.56C99.2527 41.5413 98.6553 42.4587 97.93 43.312C97.2047 44.1227 96.3727 44.8267 95.434 45.424C94.538 45.9787 93.578 46.2987 92.554 46.384C89.994 46.5973 87.434 46.64 84.874 46.512C82.314 46.384 79.754 46.3413 77.194 46.384C73.6953 46.4693 71.2633 44.8907 69.898 41.648C69.6847 41.0933 69.5567 40.6027 69.514 40.176C69.4713 39.7493 69.4713 39.2373 69.514 38.64C69.5993 36.08 70.2607 33.84 71.498 31.92C72.7353 29.9573 74.4633 28.3147 76.682 26.992C76.8527 26.864 77.13 26.7147 77.514 26.544C77.9407 26.3307 78.3673 26.1387 78.794 25.968C79.2633 25.7547 79.69 25.584 80.074 25.456C80.5007 25.2853 80.8207 25.2 81.034 25.2C81.5887 25.2 82.0153 25.3707 82.314 25.712C82.6127 26.0107 82.826 26.416 82.954 26.928C83.1247 27.3973 83.21 27.888 83.21 28.4C83.21 28.912 83.1887 29.36 83.146 29.744C82.8047 31.7493 82.186 33.6907 81.29 35.568C80.394 37.4453 79.0713 38.9387 77.322 40.048L77.45 40.176C79.0287 40.2187 80.586 40.2613 82.122 40.304C83.658 40.304 85.2153 40.2827 86.794 40.24C88.2873 40.1973 89.8447 40.1973 91.466 40.24C93.0873 40.2827 94.6447 40.2187 96.138 40.048C96.9487 39.9627 97.7593 39.6853 98.57 39.216C99.4233 38.704 100.127 38.1493 100.682 37.552ZM78.41 29.744C76.9167 30.5547 75.722 31.728 74.826 33.264C73.9727 34.7573 73.546 36.3573 73.546 38.064C75.0393 37.2107 76.1487 36.016 76.874 34.48C77.5993 32.944 78.1113 31.3653 78.41 29.744ZM137.482 27.696C137.012 28.1653 136.543 28.6347 136.074 29.104C135.604 29.5307 135.114 29.9573 134.602 30.384C134.132 29.9573 133.684 29.5307 133.257 29.104C132.874 28.6773 132.447 28.2293 131.978 27.76C132.404 27.2907 132.831 26.8427 133.257 26.416C133.684 25.9467 134.111 25.4773 134.538 25.008C135.007 25.4773 135.476 25.9467 135.946 26.416C136.415 26.8427 136.927 27.2693 137.482 27.696ZM143.498 37.552C143.156 38.4053 142.751 39.344 142.282 40.368C141.812 41.3493 141.236 42.288 140.554 43.184C139.914 44.0373 139.167 44.784 138.314 45.424C137.503 46.064 136.586 46.4693 135.562 46.64C134.836 46.7253 134.047 46.768 133.194 46.768C132.383 46.768 131.615 46.7893 130.89 46.832C130.25 46.832 129.567 46.8747 128.842 46.96C128.116 47.0453 127.37 47.088 126.602 47.088C125.834 47.088 125.087 47.024 124.362 46.896C123.636 46.8107 122.975 46.5973 122.378 46.256C121.524 45.7867 120.778 45.168 120.138 44.4C119.54 43.632 119.05 42.7787 118.666 41.84C118.324 40.9013 118.111 39.9413 118.026 38.96C117.94 37.9787 118.026 37.0187 118.282 36.08H118.154C117.77 36.4213 117.002 37.1253 115.85 38.192C114.698 39.2587 113.46 40.368 112.138 41.52C110.815 42.672 109.599 43.696 108.49 44.592C107.38 45.488 106.698 45.9573 106.442 46C106.1 46.0853 105.716 46.0427 105.29 45.872C104.522 45.5307 104.159 44.9547 104.202 44.144C104.372 42.5653 104.543 41.008 104.714 39.472C104.884 37.936 104.97 36.3573 104.97 34.736C104.97 32.432 104.927 30.1067 104.842 27.76C104.756 25.3707 104.714 23.0027 104.714 20.656C104.756 18.3093 104.884 15.9627 105.098 13.616C105.354 11.2693 105.78 8.96533 106.378 6.704C107.743 5.85067 109.044 4.976 110.282 4.08C111.562 3.14133 112.884 2.24533 114.25 1.392C113.226 4.08 112.5 6.85333 112.074 9.712C111.69 12.528 111.434 15.3867 111.306 18.288C111.178 21.1467 111.114 24.0267 111.114 26.928C111.114 29.8293 111.028 32.688 110.858 35.504C111.839 34.2667 112.799 33.0507 113.738 31.856C114.719 30.6613 115.7 29.4453 116.682 28.208C117.023 27.7813 117.45 27.3973 117.962 27.056C118.474 26.7147 119.007 26.544 119.562 26.544C119.775 26.544 120.01 26.608 120.266 26.736C120.564 26.8213 120.82 26.928 121.034 27.056C121.46 27.312 121.695 27.7173 121.738 28.272C121.78 28.6987 121.802 29.4027 121.802 30.384C121.844 31.3653 121.887 32.3893 121.93 33.456C122.015 34.5227 122.1 35.504 122.186 36.4C122.271 37.296 122.378 37.8507 122.506 38.064C122.762 38.5333 123.124 38.9813 123.594 39.408C124.106 39.8773 124.746 40.1973 125.514 40.368C126.282 40.5387 127.092 40.6453 127.946 40.688C128.799 40.688 129.652 40.6667 130.506 40.624C131.359 40.5387 132.127 40.496 132.81 40.496C133.834 40.496 134.815 40.496 135.754 40.496C136.692 40.496 137.61 40.4107 138.506 40.24C139.402 40.0693 140.255 39.792 141.066 39.408C141.919 38.9813 142.73 38.3627 143.498 37.552ZM188.635 37.552C188.464 38.576 188.08 39.6 187.483 40.624C186.928 41.6053 186.224 42.5013 185.371 43.312C184.518 44.1227 183.579 44.8053 182.555 45.36C181.531 45.9147 180.486 46.2347 179.419 46.32C178.694 46.4053 177.926 46.4267 177.115 46.384C176.347 46.384 175.6 46.384 174.875 46.384C174.15 46.384 173.296 46.4053 172.315 46.448C171.334 46.4907 170.352 46.4693 169.371 46.384C168.39 46.3413 167.451 46.2133 166.555 46C165.702 45.744 164.998 45.3173 164.443 44.72C164.187 44.464 163.952 44.1227 163.739 43.696C163.568 43.2693 163.419 42.8213 163.291 42.352C163.163 41.8827 163.035 41.4133 162.907 40.944C162.779 40.4747 162.651 40.048 162.523 39.664H162.395C160.902 41.584 159.046 43.1413 156.827 44.336C154.608 45.488 152.283 46.0853 149.851 46.128C148.656 46.128 147.718 45.7013 147.035 44.848C146.31 43.9947 146.032 42.992 146.203 41.84C146.374 40.9013 146.523 40.0053 146.651 39.152C146.822 38.256 147.014 37.3387 147.227 36.4C147.611 34.864 148.315 33.52 149.339 32.368C150.406 31.1733 151.622 30.128 152.987 29.232C154.352 28.336 155.803 27.5893 157.339 26.992C158.875 26.352 160.347 25.8187 161.755 25.392C162.011 25.9893 162.288 26.5867 162.587 27.184C162.928 27.7813 163.312 28.3573 163.739 28.912C164.72 28.3147 165.702 27.76 166.683 27.248C167.664 26.6933 168.646 26.1173 169.627 25.52H169.819C169.35 26.3733 168.902 27.44 168.475 28.72C168.048 29.9573 167.75 31.2373 167.579 32.56C167.451 33.8827 167.515 35.1413 167.771 36.336C168.027 37.488 168.603 38.4053 169.499 39.088C170.054 39.5147 170.715 39.8133 171.483 39.984C172.251 40.112 173.04 40.1973 173.851 40.24C174.662 40.24 175.472 40.2187 176.283 40.176C177.094 40.1333 177.84 40.112 178.523 40.112C179.462 40.112 180.379 40.1333 181.275 40.176C182.214 40.2187 183.11 40.176 183.963 40.048C184.816 39.92 185.627 39.6853 186.395 39.344C187.163 38.96 187.91 38.3627 188.635 37.552ZM162.395 30.576C161.371 30.8747 160.304 31.2587 159.195 31.728C158.128 32.1973 157.104 32.7733 156.123 33.456C155.142 34.096 154.267 34.864 153.499 35.76C152.774 36.6133 152.262 37.5947 151.963 38.704V38.768L152.475 39.344L153.179 39.472C154.246 39.1307 155.184 38.64 155.995 38C156.848 37.3173 157.616 36.5707 158.299 35.76C159.024 34.9067 159.707 34.032 160.347 33.136C160.987 32.1973 161.67 31.344 162.395 30.576ZM201.054 18.544C200.542 18.8853 200.072 19.2907 199.646 19.76C199.262 20.1867 198.814 20.5707 198.302 20.912C197.918 20.4 197.512 19.9093 197.086 19.44C196.659 18.9707 196.232 18.5013 195.806 18.032C196.275 17.6053 196.723 17.1787 197.15 16.752C197.576 16.2827 198.046 15.8773 198.558 15.536L201.054 18.544ZM194.014 17.968C193.502 18.4373 193.032 18.928 192.606 19.44C192.179 19.9093 191.688 20.3573 191.134 20.784C190.664 20.4427 190.238 20.08 189.854 19.696C189.47 19.2693 189.064 18.864 188.638 18.48C189.107 17.9253 189.598 17.4133 190.11 16.944C190.664 16.4747 191.176 15.984 191.646 15.472C192.03 15.8987 192.435 16.304 192.862 16.688C193.288 17.072 193.672 17.4987 194.014 17.968ZM197.918 24.24C197.918 25.6053 197.918 26.9707 197.918 28.336C197.96 29.7013 198.024 31.0667 198.11 32.432C198.238 34.6933 198.174 37.0187 197.918 39.408C197.662 41.7973 197.363 44.1013 197.022 46.32C196.04 46.4053 195.08 46.4267 194.142 46.384C193.246 46.384 192.307 46.32 191.326 46.192C191.411 45.168 191.496 44.08 191.582 42.928C191.71 41.7333 191.795 40.5387 191.838 39.344C191.923 38.1493 191.966 36.976 191.966 35.824C191.966 34.6293 191.923 33.5413 191.838 32.56C191.752 31.7493 191.368 31.152 190.686 30.768C190.003 30.3413 189.32 30 188.638 29.744C190.216 28.848 191.752 27.9307 193.246 26.992C194.739 26.0107 196.296 25.0933 197.918 24.24ZM226.346 3.952L225.066 12.208C224.554 11.4827 223.828 10.9493 222.89 10.608C221.994 10.2667 221.055 10.1173 220.074 10.16C219.092 10.2027 218.154 10.416 217.258 10.8C216.362 11.1413 215.636 11.6533 215.082 12.336C214.57 12.976 214.25 13.808 214.122 14.832C214.036 15.8133 213.908 16.7093 213.738 17.52C214.463 17.5627 215.338 17.6053 216.362 17.648C217.386 17.648 218.431 17.6267 219.498 17.584C220.607 17.5413 221.652 17.456 222.634 17.328C223.615 17.2 224.426 17.008 225.066 16.752C224.938 17.9893 224.447 19.0773 223.594 20.016C222.783 20.9547 221.823 21.6587 220.714 22.128C219.562 22.0427 218.41 22.064 217.258 22.192C216.106 22.2773 214.932 22.2987 213.738 22.256C213.78 23.7493 213.802 25.2427 213.802 26.736C213.844 28.2293 213.887 29.7227 213.93 31.216C213.93 32.1973 213.93 33.2 213.93 34.224C213.93 35.248 213.887 36.2507 213.802 37.232C213.759 37.7013 213.716 38.192 213.674 38.704C213.631 39.1733 213.61 39.6427 213.61 40.112C213.652 40.88 213.994 41.456 214.634 41.84C215.274 42.224 215.892 42.5867 216.49 42.928C214.826 43.7813 213.183 44.656 211.562 45.552C209.983 46.448 208.298 47.1947 206.506 47.792C206.847 43.568 207.039 39.3653 207.082 35.184C207.167 31.0027 207.146 26.7787 207.018 22.512C206.079 22.6827 205.119 23.088 204.138 23.728C204.223 22.6187 204.479 21.552 204.906 20.528C205.375 19.504 206.1 18.6933 207.082 18.096C207.039 17.712 207.039 17.328 207.082 16.944C207.124 16.56 207.146 16.176 207.146 15.792C207.487 14.896 207.743 13.9787 207.914 13.04C208.084 12.1013 208.383 11.2053 208.81 10.352H209.002C209.3 8.90133 209.855 7.57867 210.666 6.384C211.519 5.18933 212.522 4.18667 213.674 3.376C214.868 2.56533 216.17 1.968 217.578 1.584C218.986 1.2 220.415 1.072 221.866 1.2C222.378 1.28533 222.804 1.37067 223.146 1.456C223.53 1.54133 223.935 1.75467 224.362 2.096C225.13 2.65066 225.791 3.26933 226.346 3.952ZM263.51 37.552C263.339 38.576 262.955 39.6 262.358 40.624C261.803 41.6053 261.099 42.5013 260.246 43.312C259.393 44.1227 258.454 44.8053 257.43 45.36C256.406 45.9147 255.361 46.2347 254.294 46.32C253.569 46.4053 252.801 46.4267 251.99 46.384C251.222 46.384 250.475 46.384 249.75 46.384C249.025 46.384 248.171 46.4053 247.19 46.448C246.209 46.4907 245.227 46.4693 244.246 46.384C243.265 46.3413 242.326 46.2133 241.43 46C240.577 45.744 239.873 45.3173 239.318 44.72C239.062 44.464 238.827 44.1227 238.614 43.696C238.443 43.2693 238.294 42.8213 238.166 42.352C238.038 41.8827 237.91 41.4133 237.782 40.944C237.654 40.4747 237.526 40.048 237.398 39.664H237.27C235.777 41.584 233.921 43.1413 231.702 44.336C229.483 45.488 227.158 46.0853 224.726 46.128C223.531 46.128 222.593 45.7013 221.91 44.848C221.185 43.9947 220.907 42.992 221.078 41.84C221.249 40.9013 221.398 40.0053 221.526 39.152C221.697 38.256 221.889 37.3387 222.102 36.4C222.486 34.864 223.19 33.52 224.214 32.368C225.281 31.1733 226.497 30.128 227.862 29.232C229.227 28.336 230.678 27.5893 232.214 26.992C233.75 26.352 235.222 25.8187 236.63 25.392C236.886 25.9893 237.163 26.5867 237.462 27.184C237.803 27.7813 238.187 28.3573 238.614 28.912C239.595 28.3147 240.577 27.76 241.558 27.248C242.539 26.6933 243.521 26.1173 244.502 25.52H244.694C244.225 26.3733 243.777 27.44 243.35 28.72C242.923 29.9573 242.625 31.2373 242.454 32.56C242.326 33.8827 242.39 35.1413 242.646 36.336C242.902 37.488 243.478 38.4053 244.374 39.088C244.929 39.5147 245.59 39.8133 246.358 39.984C247.126 40.112 247.915 40.1973 248.726 40.24C249.537 40.24 250.347 40.2187 251.158 40.176C251.969 40.1333 252.715 40.112 253.398 40.112C254.337 40.112 255.254 40.1333 256.15 40.176C257.089 40.2187 257.985 40.176 258.838 40.048C259.691 39.92 260.502 39.6853 261.27 39.344C262.038 38.96 262.785 38.3627 263.51 37.552ZM237.27 30.576C236.246 30.8747 235.179 31.2587 234.07 31.728C233.003 32.1973 231.979 32.7733 230.998 33.456C230.017 34.096 229.142 34.864 228.374 35.76C227.649 36.6133 227.137 37.5947 226.838 38.704V38.768L227.35 39.344L228.054 39.472C229.121 39.1307 230.059 38.64 230.87 38C231.723 37.3173 232.491 36.5707 233.174 35.76C233.899 34.9067 234.582 34.032 235.222 33.136C235.862 32.1973 236.545 31.344 237.27 30.576Z" fill="#333333"/>
</g>
<defs>
<filter id="filter0_d_9_10" x="0.199997" y="0.752" width="275.31" height="61.04" filterUnits="userSpaceOnUse" color-interpolation-filters="sRGB">
<feFlood flood-opacity="0" result="BackgroundImageFix"/>
<feColorMatrix in="SourceAlpha" type="matrix" values="0 0 0 0 0 0 0 0 0 0 0 0 0 0 0 0 0 0 127 0" result="hardAlpha"/>
<feOffset dx="5" dy="7"/>
<feGaussianBlur stdDeviation="3.5"/>
<feComposite in2="hardAlpha" operator="out"/>
<feColorMatrix type="matrix" values="0 0 0 0 0 0 0 0 0 0 0 0 0 0 0 0 0 0 0.27 0"/>
<feBlend mode="hard-light" in2="BackgroundImageFix" result="effect1_dropShadow_9_10"/>
<feBlend mode="normal" in="SourceGraphic" in2="effect1_dropShadow_9_10" result="shape"/>
</filter>
</defs>
</svg>
