<svg width="110" height="16" viewBox="0 0 110 16" fill="none" xmlns="http://www.w3.org/2000/svg">
<path d="M2.09 15V3.34C2.09 2.68 1.99467 2.152 1.804 1.756C1.628 1.34533 1.21 1.14 0.55 1.14H0.33V0.479999H6.27C6.95933 0.479999 7.678 0.523999 8.426 0.611999C9.18867 0.685332 9.89267 0.853999 10.538 1.118C11.198 1.36733 11.7333 1.74867 12.144 2.262C12.5547 2.77533 12.76 3.46467 12.76 4.33C12.76 4.96067 12.5033 5.584 11.99 6.2C11.4913 6.80133 10.7287 7.234 9.702 7.498C10.67 7.586 11.418 7.79867 11.946 8.136C12.4887 8.47333 12.87 8.89133 13.09 9.39C13.31 9.874 13.42 10.402 13.42 10.974C13.42 11.81 13.2293 12.492 12.848 13.02C12.4813 13.548 11.9827 13.9587 11.352 14.252C10.7213 14.5307 10.0173 14.7287 9.24 14.846C8.47733 14.9487 7.70733 15 6.93 15H2.09ZM6.6 14.12C7.81733 14.12 8.74133 13.856 9.372 13.328C10.0173 12.8 10.34 12.052 10.34 11.084C10.34 10.072 10.0247 9.31667 9.394 8.818C8.778 8.30467 7.84667 8.048 6.6 8.048H4.95V13.9C5.11133 13.944 5.33867 13.9953 5.632 14.054C5.92533 14.098 6.248 14.12 6.6 14.12ZM4.95 7.058H6.6C7.20133 7.058 7.72933 6.97 8.184 6.794C8.65333 6.60333 9.02 6.30267 9.284 5.892C9.548 5.46667 9.68 4.90933 9.68 4.22C9.68 3.48667 9.51133 2.91467 9.174 2.504C8.85133 2.09333 8.426 1.8 7.898 1.624C7.38467 1.448 6.842 1.36 6.27 1.36C6.10867 1.36 5.92533 1.36733 5.72 1.382C5.52933 1.39667 5.27267 1.44067 4.95 1.514V7.058ZM20.0322 15.22C19.0055 15.22 18.1109 14.9853 17.3482 14.516C16.5855 14.0467 15.9989 13.4087 15.5882 12.602C15.1775 11.7807 14.9722 10.8567 14.9722 9.83C14.9722 8.65667 15.1849 7.674 15.6102 6.882C16.0355 6.07533 16.6149 5.46667 17.3482 5.056C18.0815 4.64533 18.9029 4.44 19.8122 4.44C20.7215 4.44 21.5429 4.62333 22.2762 4.99C23.0095 5.35667 23.5889 5.87 24.0142 6.53C24.4395 7.19 24.6522 7.96 24.6522 8.84L24.5642 10.226H17.9422C17.9422 11.678 18.1622 12.712 18.6022 13.328C19.0569 13.9293 19.6435 14.23 20.3622 14.23C21.1249 14.23 21.7409 14.054 22.2102 13.702C22.6942 13.35 23.1269 12.9173 23.5082 12.404L24.1902 12.91C23.9849 13.2327 23.7062 13.5773 23.3542 13.944C23.0169 14.296 22.5769 14.5967 22.0342 14.846C21.5062 15.0953 20.8389 15.22 20.0322 15.22ZM17.9422 9.236H21.6822C21.6822 7.784 21.5062 6.78667 21.1542 6.244C20.8169 5.70133 20.3695 5.43 19.8122 5.43C19.4895 5.43 19.1815 5.54733 18.8882 5.782C18.6095 6.01667 18.3822 6.41267 18.2062 6.97C18.0302 7.51267 17.9422 8.268 17.9422 9.236ZM26.7596 15V3.34C26.7596 2.68 26.6642 2.152 26.4736 1.756C26.2976 1.34533 25.8796 1.14 25.2196 1.14H24.9996V0.479999H27.6396C28.1529 0.479999 28.5489 0.568 28.8276 0.744C29.1209 0.919999 29.3262 1.21333 29.4436 1.624C29.5609 2.03467 29.6196 2.60667 29.6196 3.34V15H26.7596ZM32.4314 15V3.34C32.4314 2.68 32.3361 2.152 32.1454 1.756C31.9694 1.34533 31.5514 1.14 30.8914 1.14H30.6714V0.479999H33.3114C33.8248 0.479999 34.2208 0.568 34.4994 0.744C34.7928 0.919999 34.9981 1.21333 35.1154 1.624C35.2328 2.03467 35.2914 2.60667 35.2914 3.34V15H32.4314ZM38.4333 15V7.52C38.4333 6.86 38.338 6.332 38.1473 5.936C37.9713 5.52533 37.5533 5.32 36.8933 5.32H36.6733V4.66H39.3133C39.8266 4.66 40.2226 4.748 40.5013 4.924C40.7946 5.1 41 5.39333 41.1173 5.804C41.2346 6.21467 41.2933 6.78667 41.2933 7.52V15H38.4333ZM39.8633 3.472C39.306 3.472 38.888 3.30333 38.6093 2.966C38.3453 2.62867 38.2133 2.24 38.2133 1.8C38.2133 1.41867 38.3306 1.118 38.5653 0.897999C38.8 0.677999 39.086 0.568 39.4233 0.568C39.9806 0.568 40.3913 0.736666 40.6553 1.074C40.934 1.41133 41.0733 1.8 41.0733 2.24C41.0733 2.62133 40.956 2.922 40.7213 3.142C40.4866 3.362 40.2006 3.472 39.8633 3.472ZM50.1505 15V3.34C50.1505 2.68 50.0552 2.152 49.8645 1.756C49.6885 1.34533 49.2705 1.14 48.6105 1.14H48.3905V0.479999H54.3745C57.3959 0.479999 59.6619 1.118 61.1725 2.394C62.6979 3.67 63.4605 5.42267 63.4605 7.652C63.4605 9.104 63.1305 10.38 62.4705 11.48C61.8252 12.58 60.8719 13.4453 59.6105 14.076C58.3492 14.692 56.7945 15 54.9465 15H50.1505ZM54.8805 14.12C55.9072 14.12 56.8165 13.8633 57.6085 13.35C58.4005 12.8367 59.0239 12.1033 59.4785 11.15C59.9332 10.1967 60.1605 9.06 60.1605 7.74C60.1605 6.44933 59.9332 5.32733 59.4785 4.374C59.0385 3.42067 58.4152 2.68 57.6085 2.152C56.8165 1.624 55.8925 1.36 54.8365 1.36C54.5139 1.36 54.2352 1.36733 54.0005 1.382C53.7659 1.39667 53.4359 1.44067 53.0105 1.514V13.966C53.3332 14.0247 53.5825 14.0687 53.7585 14.098C53.9492 14.1127 54.1252 14.12 54.2865 14.12C54.4479 14.12 54.6459 14.12 54.8805 14.12ZM68.6378 15.22C68.0218 15.22 67.4791 15.1467 67.0098 15C66.5551 14.8533 66.1664 14.6553 65.8438 14.406C65.5358 14.142 65.3011 13.8267 65.1398 13.46C64.9784 13.0933 64.8978 12.69 64.8978 12.25C64.8978 11.546 65.0591 10.952 65.3818 10.468C65.7191 9.96933 66.3204 9.59533 67.1858 9.346C68.0511 9.082 69.2684 8.95 70.8378 8.95H71.1678C71.1678 8.07 71.0871 7.37333 70.9258 6.86C70.7644 6.34667 70.5224 5.98 70.1998 5.76C69.8918 5.54 69.5178 5.43 69.0778 5.43C68.5791 5.43 68.1318 5.55467 67.7358 5.804C67.3398 6.05333 67.0538 6.58867 66.8778 7.41H65.6678C65.6678 7.02867 65.6898 6.64 65.7338 6.244C65.7924 5.848 65.9538 5.50333 66.2178 5.21C66.4818 4.91667 66.9144 4.71867 67.5158 4.616C68.1318 4.49867 68.7991 4.44 69.5178 4.44C70.2364 4.44 70.8744 4.53533 71.4318 4.726C71.9891 4.91667 72.4584 5.20267 72.8398 5.584C73.2358 5.96533 73.5291 6.44933 73.7198 7.036C73.9251 7.608 74.0278 8.28267 74.0278 9.06V15H72.1578L71.3878 14.01H71.2778C71.0871 14.318 70.7644 14.5967 70.3098 14.846C69.8551 15.0953 69.2978 15.22 68.6378 15.22ZM69.2978 14.12C69.7818 14.12 70.1851 13.9587 70.5078 13.636C70.8304 13.3133 71.0504 12.998 71.1678 12.69V9.94H70.8378C69.7818 9.94 69.0191 10.1307 68.5498 10.512C68.0951 10.8933 67.8678 11.4727 67.8678 12.25C67.8678 12.866 67.9924 13.3353 68.2418 13.658C68.5058 13.966 68.8578 14.12 69.2978 14.12ZM76.9338 15V7.52C76.9338 6.86 76.8458 6.332 76.6698 5.936C76.4938 5.52533 76.0758 5.32 75.4158 5.32H75.1958V4.66H77.3738C77.8725 4.66 78.2612 4.726 78.5398 4.858C78.8332 4.97533 79.0605 5.18067 79.2218 5.474C79.4858 5.22467 79.8598 4.99 80.3438 4.77C80.8425 4.55 81.5392 4.44 82.4338 4.44C83.3578 4.44 84.1278 4.57933 84.7438 4.858C85.3598 5.13667 85.8218 5.57667 86.1298 6.178C86.4525 6.76467 86.6138 7.53467 86.6138 8.488V15H83.7538V8.466C83.7538 7.74733 83.6585 7.17533 83.4678 6.75C83.2918 6.32467 83.0498 6.01667 82.7418 5.826C82.4338 5.63533 82.0745 5.54 81.6638 5.54C81.2532 5.54 80.8865 5.59133 80.5638 5.694C80.2558 5.79667 79.9992 5.92867 79.7938 6.09V15H76.9338ZM93.9001 15.22C92.7268 15.22 91.7441 14.978 90.9521 14.494C90.1748 13.9953 89.5881 13.3353 89.1921 12.514C88.8108 11.6927 88.6201 10.798 88.6201 9.83C88.6201 8.84733 88.8108 7.95267 89.1921 7.146C89.5881 6.32467 90.1748 5.672 90.9521 5.188C91.7441 4.68933 92.7268 4.44 93.9001 4.44C94.7361 4.44 95.4401 4.49867 96.0121 4.616C96.5988 4.73333 97.0315 4.93133 97.3101 5.21C97.5888 5.48867 97.7501 5.86267 97.7941 6.332C97.8381 6.80133 97.8601 7.454 97.8601 8.29H97.2001C97.1415 7.35133 96.8481 6.64 96.3201 6.156C95.8068 5.672 95.1101 5.43 94.2301 5.43C93.7021 5.43 93.2401 5.59133 92.8441 5.914C92.4481 6.222 92.1401 6.706 91.9201 7.366C91.7001 8.01133 91.5901 8.83267 91.5901 9.83C91.5901 10.798 91.6928 11.612 91.8981 12.272C92.1035 12.9173 92.4041 13.4087 92.8001 13.746C93.2108 14.0687 93.7241 14.23 94.3401 14.23C95.1028 14.23 95.7188 14.054 96.1881 13.702C96.6721 13.35 97.1048 12.9173 97.4861 12.404L98.1681 12.91C97.9628 13.2327 97.6841 13.5773 97.3321 13.944C96.9948 14.296 96.5475 14.5967 95.9901 14.846C95.4475 15.0953 94.7508 15.22 93.9001 15.22ZM104.616 15.22C103.59 15.22 102.695 14.9853 101.932 14.516C101.17 14.0467 100.583 13.4087 100.172 12.602C99.7615 11.7807 99.5562 10.8567 99.5562 9.83C99.5562 8.65667 99.7689 7.674 100.194 6.882C100.62 6.07533 101.199 5.46667 101.932 5.056C102.666 4.64533 103.487 4.44 104.396 4.44C105.306 4.44 106.127 4.62333 106.86 4.99C107.594 5.35667 108.173 5.87 108.598 6.53C109.024 7.19 109.236 7.96 109.236 8.84L109.148 10.226H102.526C102.526 11.678 102.746 12.712 103.186 13.328C103.641 13.9293 104.228 14.23 104.946 14.23C105.709 14.23 106.325 14.054 106.794 13.702C107.278 13.35 107.711 12.9173 108.092 12.404L108.774 12.91C108.569 13.2327 108.29 13.5773 107.938 13.944C107.601 14.296 107.161 14.5967 106.618 14.846C106.09 15.0953 105.423 15.22 104.616 15.22ZM102.526 9.236H106.266C106.266 7.784 106.09 6.78667 105.738 6.244C105.401 5.70133 104.954 5.43 104.396 5.43C104.074 5.43 103.766 5.54733 103.472 5.782C103.194 6.01667 102.966 6.41267 102.79 6.97C102.614 7.51267 102.526 8.268 102.526 9.236Z" fill="black"/>
</svg>
